<svg width="178" height="36" viewBox="0 0 178 36" fill="none" xmlns="http://www.w3.org/2000/svg">
<path d="M9.8403 28.682C7.98191 28.682 6.20193 28.4656 4.5003 28.0328C2.79866 27.6 1.43287 27.0492 0.402939 26.3803L2.61954 22.6918C3.69426 23.3804 4.90332 23.9115 6.24671 24.2853C7.59011 24.659 8.96709 24.8459 10.3777 24.8459C11.8778 24.8459 13.0644 24.6295 13.9377 24.1967C14.8109 23.764 15.2475 23.1738 15.2475 22.4262C15.2475 21.8164 14.9004 21.3541 14.2063 21.0394C13.5123 20.7049 12.404 20.3508 10.8814 19.9771C9.35889 19.5836 8.11625 19.2098 7.1535 18.8557C6.19074 18.482 5.35112 17.9311 4.63464 17.2033C3.94055 16.4754 3.59351 15.5115 3.59351 14.3115C3.59351 12.9147 4.03011 11.6853 4.90332 10.623C5.79891 9.56066 7.05275 8.74429 8.66483 8.17378C10.2993 7.60327 12.1912 7.31804 14.3407 7.31804C15.9304 7.31804 17.4305 7.47544 18.8411 7.79017C20.2516 8.08525 21.4607 8.51802 22.4682 9.08853L20.4195 12.7475C19.5463 12.2164 18.5612 11.8229 17.4641 11.5672C16.367 11.2918 15.2251 11.1541 14.0384 11.1541C12.4935 11.1541 11.2732 11.3902 10.3777 11.8623C9.48208 12.3344 9.03426 12.9443 9.03426 13.6918C9.03426 14.1443 9.22455 14.5279 9.6052 14.8426C9.98586 15.1377 10.4672 15.3836 11.0494 15.5803C11.6315 15.7574 12.4487 15.9738 13.5011 16.2295C15.0012 16.5836 16.2326 16.9476 17.1954 17.3213C18.1581 17.6754 18.9754 18.2066 19.6471 18.9148C20.3412 19.6033 20.6882 20.5181 20.6882 21.659C20.6882 23.0754 20.2404 24.3148 19.3448 25.3771C18.4493 26.4197 17.1842 27.2361 15.5497 27.8262C13.9153 28.3968 12.0121 28.682 9.8403 28.682ZM37.4369 17.2328L45.598 28.3279H39.4856L33.4403 20.2426L29.6452 23.1935L28.4697 28.3279H23.0625L27.7644 7.67214H33.1716L31.0222 17.1443L43.2135 7.67214H49.7961L37.4369 17.2328ZM52.6251 7.67214H58.0995L53.3976 28.3279H47.9232L52.6251 7.67214ZM63.6451 7.67214H69.1197L65.2908 24.4328H77.0793L76.1725 28.3279H58.9432L63.6451 7.67214ZM83.9145 7.67214H89.3888L85.5602 24.4328H97.3485L96.4417 28.3279H79.2126L83.9145 7.67214ZM113.688 7.67214C116.621 7.67214 118.882 8.24265 120.472 9.38361C122.084 10.5049 122.89 12.0787 122.89 14.1049C122.89 15.8361 122.42 17.3508 121.479 18.6492C120.562 19.9279 119.24 20.9115 117.516 21.6C115.815 22.2886 113.8 22.6328 111.471 22.6328H106.232L104.955 28.3279H99.4811L104.183 7.67214H113.688ZM111.706 18.7377C113.52 18.7377 114.919 18.3738 115.904 17.6459C116.89 16.9181 117.382 15.8754 117.382 14.518C117.382 13.5344 117.002 12.7967 116.24 12.3049C115.501 11.8131 114.426 11.5672 113.016 11.5672H108.751L107.105 18.7377H111.706ZM139.296 23.9016H128.347L125.291 28.3279H119.481L134.695 7.67214H140.068L145.845 28.3279H140.404L139.296 23.9016ZM138.389 20.2721L136.408 12.3049L130.866 20.2721H138.389ZM152.987 7.67214H162.827C165.222 7.67214 167.282 8.02624 169.007 8.73443C170.753 9.42298 172.085 10.4164 173.003 11.7148C173.944 13.0131 174.414 14.5377 174.414 16.2885C174.414 18.6886 173.798 20.8033 172.567 22.6328C171.335 24.4427 169.611 25.8492 167.394 26.8525C165.2 27.8361 162.659 28.3279 159.771 28.3279H148.285L152.987 7.67214ZM159.939 24.4033C161.774 24.4033 163.364 24.0688 164.708 23.4C166.073 22.7115 167.114 21.7771 167.831 20.5967C168.547 19.3968 168.906 18.0492 168.906 16.5541C168.906 15 168.335 13.7902 167.193 12.9246C166.051 12.0394 164.394 11.5967 162.222 11.5967H157.554L154.632 24.4033H159.939Z" fill="#0A65FF"/>
<path d="M11.1837 28.682C9.32534 28.682 7.52297 28.4656 5.77656 28.0328C4.05253 27.5803 2.66436 27 1.61203 26.2918L3.4592 22.6918C4.46675 23.341 5.66461 23.8623 7.05279 24.2557C8.44098 24.6492 9.82912 24.8459 11.2173 24.8459C12.7622 24.8459 13.9041 24.6492 14.643 24.2557C15.3818 23.8426 15.7513 23.3016 15.7513 22.6328C15.7513 22.141 15.5274 21.7377 15.0796 21.423C14.6542 21.0885 14.0944 20.8229 13.4003 20.6262C12.7286 20.4295 11.8106 20.2131 10.6464 19.9771C8.85515 19.6033 7.38863 19.2295 6.24675 18.8557C5.10486 18.482 4.1197 17.882 3.29128 17.0557C2.48524 16.2295 2.08222 15.1279 2.08222 13.7508C2.08222 12.5508 2.45165 11.4688 3.19052 10.5049C3.92939 9.5213 5.03769 8.74429 6.51543 8.17378C8.01553 7.60327 9.84033 7.31804 11.9898 7.31804C13.4899 7.31804 14.9565 7.47544 16.3894 7.79017C17.8223 8.1049 19.0762 8.55738 20.1509 9.14755L18.4717 12.7771C16.2999 11.6951 14.128 11.1541 11.9562 11.1541C10.4336 11.1541 9.30297 11.3705 8.56411 11.8033C7.84761 12.2361 7.48939 12.8066 7.48939 13.5148C7.48939 14.223 7.90363 14.7541 8.73203 15.1082C9.58287 15.4427 10.8702 15.777 12.5943 16.1115C14.3855 16.4852 15.852 16.859 16.9939 17.2328C18.1358 17.6065 19.1098 18.1967 19.9158 19.0033C20.7442 19.8099 21.1584 20.9017 21.1584 22.2787C21.1584 23.459 20.7778 24.541 20.0166 25.5246C19.2777 26.4885 18.1582 27.2557 16.6581 27.8262C15.158 28.3968 13.3332 28.682 11.1837 28.682ZM33.4403 20.2131L30.2833 23.1049V28.3279H24.8762V7.67214H30.2833V17.3213L40.6947 7.67214H46.7399L37.0003 16.8787L47.3109 28.3279H40.9633L33.4403 20.2131ZM49.7369 7.67214H55.1776V28.3279H49.7369V7.67214ZM60.7569 7.67214H66.1976V24.4328H77.9861V28.3279H60.7569V7.67214ZM81.0262 7.67214H86.467V24.4328H98.2553V28.3279H81.0262V7.67214ZM111.471 7.67214C113.553 7.67214 115.356 7.97708 116.878 8.58689C118.423 9.19671 119.61 10.0623 120.438 11.1836C121.267 12.3049 121.681 13.6328 121.681 15.1672C121.681 16.682 121.267 18.0099 120.438 19.1508C119.61 20.2721 118.423 21.1377 116.878 21.7476C115.356 22.3377 113.553 22.6328 111.471 22.6328H106.735V28.3279H101.295V7.67214H111.471ZM111.169 18.7377C112.804 18.7377 114.046 18.4328 114.897 17.823C115.748 17.1934 116.173 16.3082 116.173 15.1672C116.173 14.0065 115.748 13.1213 114.897 12.5115C114.046 11.882 112.804 11.5672 111.169 11.5672H106.735V18.7377H111.169ZM139.867 23.9016H128.952L126.87 28.3279H121.295L131.773 7.67214H137.147L147.659 28.3279H141.949L139.867 23.9016ZM138.154 20.2721L134.426 12.3639L130.698 20.2721H138.154ZM150.098 7.67214H160.778C163.331 7.67214 165.581 8.1049 167.529 8.9705C169.499 9.81638 171.022 11.0164 172.096 12.5705C173.193 14.1246 173.742 15.9344 173.742 18C173.742 20.0656 173.193 21.8754 172.096 23.4295C171.022 24.9836 169.499 26.1934 167.529 27.059C165.581 27.9049 163.331 28.3279 160.778 28.3279H150.098V7.67214ZM160.51 24.4033C162.861 24.4033 164.73 23.8328 166.118 22.6918C167.529 21.5311 168.234 19.9672 168.234 18C168.234 16.0328 167.529 14.4787 166.118 13.3377C164.73 12.177 162.861 11.5967 160.51 11.5967H155.539V24.4033H160.51Z" fill="white"/>
</svg>
