<?xml version="1.0" standalone="no"?>
<!DOCTYPE svg PUBLIC "-//W3C//DTD SVG 20010904//EN"
 "http://www.w3.org/TR/2001/REC-SVG-20010904/DTD/svg10.dtd">
<svg version="1.0" xmlns="http://www.w3.org/2000/svg"
 width="720.000000pt" height="720.000000pt" viewBox="0 0 720.000000 720.000000"
 preserveAspectRatio="xMidYMid meet">
<metadata>
Created by potrace 1.14, written by Peter Selinger 2001-2017
</metadata>
<g transform="translate(0.000000,720.000000) scale(0.100000,-0.100000)"
fill="#000000" stroke="none">
<path d="M3450 6625 c-43 -12 -82 -29 -360 -162 -63 -31 -142 -68 -175 -83
-33 -15 -118 -56 -190 -90 -121 -58 -233 -110 -280 -131 -11 -5 -27 -13 -35
-18 -8 -5 -51 -26 -95 -47 -75 -34 -377 -177 -525 -247 -36 -17 -67 -32 -70
-32 -3 0 -16 -7 -30 -15 -14 -8 -27 -15 -30 -15 -3 -1 -50 -23 -105 -49 -55
-27 -134 -64 -175 -83 -41 -20 -127 -60 -190 -91 -63 -30 -147 -69 -187 -88
-39 -18 -118 -55 -175 -82 -57 -27 -143 -69 -193 -92 -49 -23 -144 -68 -210
-100 -208 -100 -337 -160 -345 -160 -4 0 -24 -16 -45 -37 -33 -32 -36 -40 -31
-71 7 -46 53 -89 116 -107 7 -2 264 -126 360 -173 l75 -37 0 -469 0 -468 -46
-23 c-104 -53 -172 -157 -173 -265 -1 -71 5 -106 25 -142 7 -12 13 -26 14 -30
1 -17 77 -86 120 -109 l47 -24 -7 -80 c-7 -84 -11 -126 -21 -185 -3 -19 -7
-46 -9 -60 -2 -14 -11 -58 -20 -99 -10 -40 -18 -79 -19 -87 -1 -7 -5 -17 -9
-20 -4 -4 -7 -15 -7 -25 0 -16 18 -21 150 -44 8 -2 53 -10 100 -19 47 -8 99
-18 115 -21 17 -2 39 -7 50 -9 26 -5 107 -20 120 -22 6 -1 12 -3 15 -4 12 -5
50 -6 50 -2 0 3 -10 19 -23 36 -37 50 -104 169 -143 252 -35 76 -101 268 -121
351 l-10 42 48 31 c202 131 185 428 -30 532 l-48 22 0 428 c0 235 4 428 9 428
4 0 74 -31 154 -70 80 -38 147 -70 149 -70 1 0 63 -29 136 -64 74 -35 188 -90
254 -121 66 -31 139 -66 162 -77 24 -11 43 -24 43 -29 0 -8 -70 -193 -105
-279 -8 -19 -33 -84 -55 -143 -36 -96 -47 -114 -98 -165 -68 -67 -78 -92 -50
-127 11 -14 23 -23 27 -21 12 8 10 -24 -10 -119 -54 -269 -58 -606 -9 -840 6
-27 13 -66 15 -85 3 -19 10 -48 15 -65 5 -16 21 -70 36 -120 55 -188 177 -445
271 -571 13 -17 23 -36 23 -42 0 -6 3 -12 8 -14 4 -2 29 -32 57 -68 76 -99 92
-117 195 -220 128 -128 216 -200 346 -288 135 -90 330 -187 484 -241 36 -13
72 -26 80 -29 8 -3 20 -6 25 -8 6 -1 37 -9 70 -18 68 -19 175 -41 250 -52 28
-4 64 -9 80 -12 17 -2 125 -5 240 -6 182 -1 263 3 341 18 11 2 41 7 68 10 27
4 53 9 56 11 4 2 21 7 39 10 174 30 434 133 631 248 79 47 209 133 220 148 3
3 12 10 22 15 46 26 271 241 336 322 19 22 41 50 50 61 10 10 24 28 32 38 83
100 238 375 298 531 38 98 96 294 111 378 6 32 13 70 16 83 4 23 13 95 21 176
4 52 5 318 0 370 -9 98 -36 263 -51 316 -13 45 -12 47 15 73 44 41 26 93 -57
166 -31 27 -44 52 -74 142 -20 60 -37 111 -38 113 0 3 -8 31 -18 63 -9 31 -18
59 -18 62 -1 3 -4 12 -8 20 -3 8 -12 38 -21 65 -8 28 -17 58 -21 67 -6 15 8
25 81 59 49 23 162 77 252 120 90 44 165 79 166 79 2 0 77 35 167 79 90 43
200 95 244 116 44 21 127 60 185 88 58 27 143 67 190 89 148 69 235 110 250
119 8 4 34 17 57 29 26 13 47 33 58 55 15 32 15 38 0 68 -9 20 -33 43 -58 57
-23 13 -43 23 -44 23 -1 -1 -47 20 -102 47 -55 27 -130 63 -168 81 -37 17
-115 54 -173 81 -58 28 -143 68 -190 90 -47 22 -134 64 -195 93 -60 29 -150
72 -200 95 -49 23 -133 63 -185 87 -132 63 -457 217 -560 265 -47 23 -85 39
-85 37 0 -2 -15 6 -32 19 -18 13 -33 21 -33 18 0 -3 -50 20 -110 50 -61 29
-112 54 -114 54 -2 0 -84 39 -183 86 -272 130 -289 139 -603 286 -47 22 -146
70 -220 105 -187 90 -302 112 -420 78z"/>
</g>
</svg>
