<?xml version="1.0" standalone="no"?>
<!DOCTYPE svg PUBLIC "-//W3C//DTD SVG 20010904//EN"
 "http://www.w3.org/TR/2001/REC-SVG-20010904/DTD/svg10.dtd">
<svg version="1.0" xmlns="http://www.w3.org/2000/svg"
 width="261.000000pt" height="261.000000pt" viewBox="0 0 261.000000 261.000000"
 preserveAspectRatio="xMidYMid meet">
<metadata>
Created by potrace 1.11, written by Peter Selinger 2001-2013
</metadata>
<g transform="translate(0.000000,261.000000) scale(0.100000,-0.100000)"
fill="#000000" stroke="none">
<path d="M7 2603 c-4 -3 -7 -588 -7 -1300 l0 -1293 1300 0 1300 0 0 1300 0
1300 -1293 0 c-712 0 -1297 -3 -1300 -7z m784 -597 c42 -8 97 -23 122 -34 63
-28 141 -103 172 -165 23 -47 32 -87 20 -87 -5 0 -174 -26 -231 -35 -30 -5
-32 -3 -44 40 -7 25 -30 65 -52 89 -51 59 -107 80 -195 74 -113 -8 -179 -57
-198 -145 -10 -50 18 -133 64 -185 57 -64 135 -102 297 -141 166 -41 228 -70
305 -144 78 -74 103 -133 97 -228 -11 -171 -137 -311 -323 -360 -79 -20 -282
-20 -383 1 -96 20 -202 74 -247 127 -43 50 -81 125 -69 137 10 9 225 70 247
70 7 0 21 -17 30 -39 26 -58 112 -134 182 -160 48 -18 72 -22 120 -17 71 7
159 48 189 89 28 38 27 117 -2 174 -36 69 -70 87 -261 137 -96 25 -207 61
-247 80 -87 41 -166 112 -202 181 -24 45 -27 61 -27 155 0 99 2 110 33 172 52
107 152 184 277 214 68 17 233 16 326 0z m851 -350 l3 -324 313 324 314 324
75 0 75 0 -239 -246 c-131 -135 -238 -251 -237 -258 1 -6 137 -207 303 -446
166 -239 297 -436 292 -438 -6 -2 -38 4 -73 13 -178 45 -376 208 -614 506
l-128 159 -43 -42 -43 -42 0 -253 0 -253 -130 0 -130 0 0 650 0 650 130 0 130
0 2 -324z"/>
</g>
</svg>
