<svg width="20" height="20" viewBox="0 0 20 20" fill="none" xmlns="http://www.w3.org/2000/svg">
<path d="M5.84001 19.5301C5.61187 19.345 5.4273 19.112 5.2994 18.8476C5.17151 18.5831 5.10343 18.2938 5.10001 18.0001V15.9001H3.50001C3.04822 15.9199 2.59725 15.8456 2.17576 15.6817C1.75426 15.5179 1.37146 15.2681 1.05169 14.9484C0.731928 14.6286 0.482186 14.2458 0.318346 13.8243C0.154506 13.4028 0.0801506 12.9519 0.100007 12.5001V3.50007C0.0801506 3.04829 0.154506 2.59731 0.318346 2.17582C0.482186 1.75432 0.731928 1.37152 1.05169 1.05176C1.37146 0.731989 1.75426 0.482247 2.17576 0.318407C2.59725 0.154567 3.04822 0.0802116 3.50001 0.100068H16.5C16.9518 0.0802116 17.4028 0.154567 17.8243 0.318407C18.2458 0.482247 18.6286 0.731989 18.9483 1.05176C19.2681 1.37152 19.5178 1.75432 19.6817 2.17582C19.8455 2.59731 19.9199 3.04829 19.9 3.50007V12.5001C19.9199 12.9519 19.8455 13.4028 19.6817 13.8243C19.5178 14.2458 19.2681 14.6286 18.9483 14.9484C18.6286 15.2681 18.2458 15.5179 17.8243 15.6817C17.4028 15.8456 16.9518 15.9199 16.5 15.9001H11.84L8.12001 19.1601C7.85787 19.4996 7.47646 19.7267 7.05308 19.7954C6.62971 19.8641 6.19605 19.7692 5.84001 19.5301ZM10.77 14.4401C11.0242 14.2159 11.3511 14.0915 11.69 14.0901H16.5C16.7151 14.1101 16.932 14.0825 17.1352 14.0092C17.3385 13.9358 17.523 13.8186 17.6758 13.6659C17.8286 13.5131 17.9458 13.3285 18.0191 13.1253C18.0924 12.9221 18.12 12.7052 18.1 12.4901V3.49007C18.12 3.27495 18.0924 3.05807 18.0191 2.85484C17.9458 2.65162 17.8286 2.46705 17.6758 2.31429C17.523 2.16152 17.3385 2.0443 17.1352 1.97098C16.932 1.89766 16.7151 1.87003 16.5 1.89007H3.50001C3.28397 1.8698 3.06613 1.89761 2.86211 1.9715C2.6581 2.04539 2.47297 2.16353 2.32002 2.31744C2.16706 2.47135 2.05008 2.65721 1.97746 2.86168C1.90484 3.06615 1.87839 3.28416 1.90001 3.50007V12.5001C1.87997 12.7152 1.9076 12.9321 1.98092 13.1353C2.05424 13.3385 2.17146 13.5231 2.32422 13.6759C2.47699 13.8286 2.66156 13.9458 2.86478 14.0192C3.068 14.0925 3.28489 14.1201 3.50001 14.1001H6.00001C6.70001 14.3001 6.70001 14.3001 6.90001 15.0001V17.8301L10.77 14.4401Z" fill="#818C99"/>
</svg>
