<svg width="24" height="20" viewBox="0 0 24 20" fill="none" xmlns="http://www.w3.org/2000/svg">
<path d="M17 0.899902C18.7001 0.907835 20.3279 1.58878 21.5273 2.79378C22.7267 3.99878 23.4 5.62975 23.4 7.3299C23.4 10.8999 21.97 12.6899 15.95 17.3299L13.17 19.4899C12.8367 19.7486 12.4268 19.889 12.005 19.889C11.5831 19.889 11.1732 19.7486 10.84 19.4899L8.04998 17.3699C1.99998 12.6899 0.599976 10.8999 0.599976 7.3299C0.599957 5.62975 1.27328 3.99878 2.47266 2.79378C3.67204 1.58878 5.29984 0.907835 6.99998 0.899902C7.9707 0.920312 8.92434 1.15928 9.78998 1.59902C10.6556 2.03877 11.411 2.66799 12 3.4399C12.5889 2.66799 13.3443 2.03877 14.21 1.59902C15.0756 1.15928 16.0293 0.920312 17 0.899902V0.899902ZM6.99998 2.6999C5.77723 2.70782 4.60726 3.19912 3.74545 4.06656C2.88363 4.934 2.39995 6.10713 2.39998 7.3299C2.39998 10.1499 3.54997 11.5899 9.15998 15.9599L11.94 18.1199C11.9573 18.1329 11.9783 18.1399 12 18.1399C12.0216 18.1399 12.0427 18.1329 12.06 18.1199L14.84 15.9999C20.45 11.6399 21.6 10.1999 21.6 7.3699C21.6052 6.76104 21.4904 6.15712 21.2619 5.59271C21.0335 5.02831 20.696 4.5145 20.2687 4.08072C19.8414 3.64693 19.3328 3.30169 18.7719 3.06475C18.211 2.82781 17.6088 2.70382 17 2.6999C15.44 2.6999 14 3.5799 12.77 5.4299L12 6.4999L11.26 5.4299C9.99998 3.5799 8.57998 2.6999 6.99998 2.6999Z" fill="#818C99"/>
</svg>
