<svg width="168" height="56" viewBox="0 0 168 56" fill="none" xmlns="http://www.w3.org/2000/svg">
<path d="M6.6546 29.7923H5.11296C5.06157 35.7019 4.08521 38.0143 4.08521 38.0143L9.73786 39.0421C9.73786 39.0421 6.6546 35.188 6.6546 29.7923ZM6.6546 16.9453H5.11296V28.7645H6.6546V16.9453ZM6.6546 29.7923H5.11296C5.06157 35.7019 4.08521 38.0143 4.08521 38.0143L9.73786 39.0421C9.73786 39.0421 6.6546 35.188 6.6546 29.7923ZM6.6546 16.9453H5.11296V28.7645H6.6546V16.9453Z" fill="#2B414D"/>
<path d="M5.8837 27.2229C7.42534 27.2229 8.71003 28.5076 8.71003 30.0492C8.71003 31.5909 7.42534 32.8756 5.8837 32.8756C4.34207 32.8756 3.05737 31.6423 3.05737 30.0492C3.05737 28.5076 4.34207 27.2229 5.8837 27.2229Z" fill="#475F6C"/>
<path d="M0.693735 14.7868L31.1667 0.346868C32.0917 -0.115623 33.6333 -0.115623 34.5583 0.346868L65.0313 14.7868C65.9563 15.2493 65.9563 16.0715 65.0313 16.534L34.5583 30.974C33.6333 31.4365 32.0917 31.4365 31.1667 30.974L0.693735 16.534C-0.231245 16.0715 -0.231245 15.2493 0.693735 14.7868ZM32.8625 22.495C42.5234 22.495 50.3344 25.9894 50.3344 30.2546C50.3344 34.5198 42.5234 38.0141 32.8625 38.0141C23.2016 38.0141 15.3907 34.5198 15.3907 30.2546C15.3907 25.9894 23.2016 22.495 32.8625 22.495Z" fill="#2B414D"/>
<path d="M33.8904 11.8064V22.5978C42.8319 22.9062 49.4095 27.12 50.3345 30.306L48.7928 18.4354C48.7928 14.8897 42.2152 12.0633 33.8904 11.8064Z" fill="#4B6370"/>
<path d="M53.1606 35.3803C53.1606 40.888 51.0157 46.0662 47.1214 49.9605C43.2271 53.8548 38.0489 55.9997 32.5412 55.9997C27.0336 55.9997 21.8554 53.8548 17.9611 49.9605C14.0668 46.0662 11.9219 40.888 11.9219 35.3803C11.9219 29.8727 14.0668 24.6945 17.9611 20.8002C21.8554 16.9059 27.0336 14.761 32.5412 14.761C38.0489 14.761 43.2271 16.9059 47.1214 20.8002C51.0157 24.6945 53.1606 29.8727 53.1606 35.3803Z" fill="#FEE158"/>
<path d="M53.1604 35.3806C53.1604 40.8882 51.0155 46.0664 47.1212 49.9607C43.2268 53.8551 38.0486 56 32.541 56V14.7612C38.0486 14.7612 43.2268 16.9061 47.1212 20.8004C51.0155 24.6948 53.1604 29.873 53.1604 35.3806Z" fill="#FFB528"/>
<path d="M32.5412 51.6508C41.5269 51.6508 48.8112 44.3665 48.8112 35.3808C48.8112 26.3952 41.5269 19.1108 32.5412 19.1108C23.5556 19.1108 16.2712 26.3952 16.2712 35.3808C16.2712 44.3665 23.5556 51.6508 32.5412 51.6508Z" fill="#FFB528"/>
<path d="M48.811 35.3808C48.811 44.3518 41.512 51.6508 32.541 51.6508V19.1108C41.512 19.1108 48.811 26.4098 48.811 35.3808Z" fill="#FE8C01"/>
<path d="M38.7233 35.129C38.4526 34.8583 38.1578 34.6215 37.8445 34.4186C38.5847 33.5881 39.0366 32.4944 39.0366 31.2959C39.0366 30.0458 38.5469 28.8666 37.6585 27.9782C36.7693 27.089 35.5909 26.5993 34.34 26.5993H33.7496V24.2651H31.3333V26.5993H26.0142V29.0156H27.9875V41.7449H26.0142V44.1612H31.3333V46.4954H33.7496V44.1612H34.9844C37.9025 44.1612 40.277 41.7868 40.277 38.8686C40.277 37.4591 39.7252 36.1309 38.7233 35.129ZM30.4038 29.0156H34.34C34.9457 29.0156 35.5168 29.2541 35.9493 29.6866C36.3818 30.1191 36.6202 30.691 36.6202 31.2959C36.6202 32.5411 35.6175 33.5559 34.3771 33.5753H30.4038V29.0156ZM34.9844 41.7449H30.4038V35.9932L32.5415 35.9924L34.9844 35.9916C35.7479 35.9916 36.4696 36.292 37.0149 36.8381C37.5602 37.3834 37.8606 38.1043 37.8606 38.8686C37.8606 40.4546 36.5703 41.7449 34.9844 41.7449Z" fill="#FEE158"/>
<path d="M40.2765 38.8686C40.2765 41.7868 37.902 44.1612 34.9839 44.1612H33.7492V46.4954H32.541V41.7449H34.9839C36.5698 41.7449 37.8602 40.4546 37.8602 38.8686C37.8602 38.1043 37.5597 37.3834 37.0145 36.8381C36.4692 36.292 35.7475 35.9916 34.9839 35.9916L32.541 35.9924V33.5753H34.3766C35.617 33.5559 36.6198 32.5411 36.6198 31.2959C36.6198 30.691 36.3814 30.1191 35.9488 29.6866C35.5163 29.2541 34.9453 29.0156 34.3396 29.0156H32.541V24.2651H33.7492V26.5993H34.3396C35.5904 26.5993 36.7688 27.089 37.658 27.9782C38.5464 28.8666 39.0361 30.0458 39.0361 31.2959C39.0361 32.4944 38.5843 33.5881 37.8441 34.4186C38.1574 34.6215 38.4522 34.8583 38.7228 35.129C39.7248 36.1309 40.2765 37.4591 40.2765 38.8686Z" fill="#FFB528"/>
<path d="M48.7926 18.4354C48.7926 14.7869 41.7011 11.8064 32.9138 11.8064C24.1779 11.8064 17.0864 14.7355 17.035 18.384C17.035 18.384 12.6285 29.2783 12.5642 30.2546C9.15981 29.0856 22.739 22.5465 32.9138 22.5465C42.3692 22.5465 55.7942 28.8928 52.5183 30.2546L48.7926 18.4354Z" fill="#455E6B"/>
<path d="M87.287 32.7412H82.5723V27.9945L79.0364 23.2478H77.8577V32.7412H73.1431V13.7544H77.8577V20.8744H79.0364L82.5723 18.5011V13.7544H87.287V18.5011L84.9296 20.8744L82.5723 22.0611L84.9296 23.2478L87.287 26.8078V32.7412Z" fill="#FFFFED"/>
<path d="M103.793 32.7412H99.0781V30.3678L96.7208 26.8078V25.6211H94.3635V32.7412H89.6489V13.7544H101.435L103.793 16.1277V23.2478L101.435 24.4345V25.6211L103.793 29.1811V32.7412ZM99.0781 23.2478V16.1277H94.3635V23.2478H99.0781Z" fill="#FFFFED"/>
<path d="M110.869 32.7412H106.155V13.7544H110.869V32.7412Z" fill="#FFFFED"/>
<path d="M127.366 23.2478L125.009 25.6211H117.937V32.7412H113.222V13.7544H125.009L127.366 16.1277V23.2478ZM122.651 23.2478V16.1277H117.937V23.2478H122.651Z" fill="#FFFFED"/>
<path d="M143.872 16.1277H139.157V32.7412H134.442V16.1277H129.728V13.7544H143.872V16.1277Z" fill="#FFFFED"/>
<path d="M160.378 32.7412H146.234V13.7544H160.378V32.7412ZM155.663 30.3678V16.1277H150.948V30.3678H155.663Z" fill="#FFFFED"/>
<path d="M87.287 53.6266L84.9296 55.9999H73.1431V51.2533H77.8577V53.6266H82.5723V46.5066H73.1431V39.3865L75.5004 37.0132H87.287V41.7599H82.5723V39.3865H77.8577V44.1332H84.9296L87.287 46.5066V53.6266Z" fill="#FFFFED"/>
<path d="M103.793 37.0132V41.7599H99.0781V39.3865H94.3635V53.6266H99.0781V51.2533H103.793V55.9999H92.0062L89.6489 53.6266V39.3865L92.0062 37.0132H103.793Z" fill="#FFFFED"/>
<path d="M120.299 55.9999H115.584V48.8799H110.869V55.9999H106.155V37.0132H110.869V46.5066H115.584V37.0132H120.299V55.9999Z" fill="#FFFFED"/>
<path d="M136.804 55.9999H122.661V37.0132H136.804V55.9999ZM132.09 53.6266V39.3865H127.375V53.6266H132.09Z" fill="#FFFFED"/>
<path d="M153.31 55.9999H139.166V37.0132H153.31V55.9999ZM148.596 53.6266V39.3865H143.881V53.6266H148.596Z" fill="#FFFFED"/>
<path d="M167.459 55.9999H155.672V37.0132H160.387V53.6266H162.744L165.101 51.2533H167.459V55.9999Z" fill="#FFFFED"/>
</svg>
