<svg width="24" height="18" viewBox="0 0 24 18" fill="none" xmlns="http://www.w3.org/2000/svg">
<path d="M12.1 4.86997V1.39997C12.1019 1.14938 12.1751 0.904495 12.311 0.69395C12.4469 0.483405 12.6399 0.315899 12.8675 0.211015C13.0951 0.106131 13.3479 0.0682029 13.5962 0.101664C13.8446 0.135126 14.0783 0.238595 14.27 0.399975L23.21 7.99997C23.4764 8.22681 23.6419 8.55015 23.67 8.89892C23.6981 9.2477 23.5866 9.59338 23.36 9.85997L23.21 10.01L14.27 17.61C14.0783 17.7714 13.8446 17.8748 13.5962 17.9083C13.3479 17.9417 13.0951 17.9038 12.8675 17.7989C12.6399 17.6941 12.4469 17.5265 12.311 17.316C12.1751 17.1055 12.1019 16.8606 12.1 16.61V13.16C7.42001 13.27 4.10001 14.25 2.21001 16.03C2.02906 16.1975 1.79907 16.3024 1.55396 16.3292C1.30885 16.356 1.06161 16.3034 0.848708 16.179C0.635805 16.0546 0.468517 15.8651 0.371522 15.6384C0.274528 15.4117 0.252964 15.1599 0.310011 14.92C1.84001 8.55997 5.82001 5.15997 12.1 4.86997V4.86997ZM13.9 2.44997V6.64997H13C7.70001 6.64997 4.28001 8.89997 2.61001 13.51C5.06001 12.06 8.53001 11.35 13 11.35H13.9V15.55L21.61 8.99997L13.9 2.44997Z" fill="#818C99"/>
</svg>
